<svg xmlns="http://www.w3.org/2000/svg" viewBox="0 0 24 24" id="hino-diesel-truck">
  <path fill="#D23F3F" d="M24 11.878C24 6.906 17.403 3.5 14.188 3.5c-1.491 0-1.708.716-1.708 1.012 0 .431.383.833.613.908 4.18 1.377 4.781 2.572 4.882 2.638.445.581.739 1.003.739 1.452l-.026.235c-.131.185.342.71-8.7.71-5.226 0-4.85-.531-4.85-.744 0-.195.078-.456.223-.748 2.1-3.34 5.884-2.886 5.884-4.284a.986.986 0 0 0-.05-.296c-.174-.521-.797-.767-1.664-.767C6.383 3.616 0 6.858 0 12.027 0 17.084 5.816 20.5 9.633 20.5c1.053 0 1.751-.316 1.751-.954 0-1.399-2.736-.943-5.307-3.416-.617-.734-.903-1.237-.903-1.583 0-.706.73-.926 9.769-.926 2.924 0 3.812.194 3.812.788 0 .199-.099.444-.257.742-2 3.132-5.905 2.996-5.905 4.205 0 1.065 1.688 1.013 1.742 1.013 4.182 0 9.665-3.958 9.665-8.491z"></path>
  <path fill="#B73737" d="M9.531 3.616C6.383 3.616 0 6.858 0 12.027 0 17.084 5.816 20.5 9.633 20.5c1.053 0 1.751-.316 1.751-.954 0-1.399-2.736-.943-5.307-3.416-.617-.734-.903-1.237-.903-1.583 0-.62.563-.865 6.826-.916v-3.187c-.612.006-1.281.01-2.012.01-5.226 0-4.85-.531-4.85-.744 0-.195.078-.456.223-.748 2.1-3.34 5.884-2.886 5.884-4.284a.986.986 0 0 0-.05-.296c-.174-.52-.797-.766-1.664-.766z"></path>
</svg>
