<svg width="304" height="102" viewBox="0 0 304 102" fill="none" xmlns="http://www.w3.org/2000/svg">
<g filter="url(#filter0_d_193_9)">
<path d="M41.1812 7.12842C41.1812 7.12842 31.6356 12.5148 29.0182 15.5158C26.4008 18.5167 25.8157 19.5171 26.0928 21.8255C26.3699 24.134 32.0205 24.2109 33.945 24.2109C35.8695 24.2109 45.9541 22.6719 48.8794 22.4411C51.8047 22.2102 57.8093 22.2102 60.8116 24.2878C63.8138 26.3654 63.4288 27.6736 63.4288 29.9051C63.4288 32.1366 60.4266 38.1385 58.733 40.9856C57.0394 43.8327 54.499 48.4087 42.7979 61.6437C41.7821 62.7926 37.4861 67.7918 26.5548 77.382C15.6234 86.9723 5 92.9256 5 92.9256L30.7117 80.46C47.5706 65.3781 63.8907 46.6558 66.1231 31.9827C68.3556 17.3095 46.5699 21.3638 46.5699 21.3638C46.5699 21.3638 36.1774 22.9028 34.0989 22.9028C32.0204 22.9028 23.9373 23.2875 31.3275 15.5158L35.9464 11.2067L41.1812 7.12842Z" fill="#E53025"/>
<path d="M41.2119 7.16748L35.9775 11.2466L31.3633 15.5493C29.5171 17.4908 28.6452 18.9171 28.3994 19.9604C28.2769 20.4807 28.3106 20.9042 28.4551 21.2495C28.5996 21.5948 28.8568 21.8669 29.1895 22.0815C29.8571 22.5122 30.821 22.7063 31.7539 22.7915C32.6854 22.8766 33.5774 22.853 34.0986 22.853C35.1336 22.853 38.2476 22.4685 41.1074 22.0835C42.536 21.8912 43.8997 21.6994 44.9062 21.5552C45.4096 21.483 45.8241 21.4224 46.1123 21.3804C46.2562 21.3594 46.3688 21.3428 46.4453 21.3315C46.4833 21.326 46.5125 21.3218 46.5322 21.3188C46.5418 21.3174 46.5497 21.3167 46.5547 21.3159C46.5571 21.3156 46.5593 21.3151 46.5605 21.3149L46.5625 21.314H46.5645C46.5671 21.3135 46.5719 21.313 46.5771 21.312C46.5877 21.3101 46.6036 21.3068 46.624 21.3032C46.6653 21.296 46.7264 21.286 46.8057 21.2729C46.9651 21.2468 47.199 21.2096 47.4951 21.1685C48.0873 21.0861 48.9308 20.9852 49.9355 20.9097C51.9451 20.7587 54.6026 20.7105 57.1914 21.1216C59.7795 21.5326 62.3057 22.4034 64.0449 24.0972C65.7867 25.7935 66.7328 28.3086 66.1729 31.9897C65.0547 39.339 60.4101 47.6964 53.9424 56.0981C47.4735 64.5013 39.176 72.9554 30.7451 80.4976L30.7344 80.5063L30.7334 80.5054L5.02832 92.9663L5.02539 92.9692C5.02536 92.9693 5.0241 92.9694 5.02344 92.9683L5.02148 92.9702L4.97559 92.8823V92.8813H4.97754L4.97949 92.8804H4.97852L4.98047 92.8794C4.9813 92.8789 4.98235 92.878 4.9834 92.8774C4.98847 92.8746 4.99596 92.8703 5.00586 92.8647C5.02624 92.8532 5.05748 92.8359 5.09766 92.813C5.17801 92.7671 5.29755 92.6985 5.45312 92.6079C5.76466 92.4266 6.2219 92.1568 6.80469 91.8032C7.97089 91.0956 9.63993 90.0516 11.6504 88.7085C15.6714 86.0223 21.0579 82.1375 26.5215 77.3442C37.4509 67.7556 41.7461 62.7585 42.7607 61.6108C54.4597 48.3783 56.9985 43.8048 58.6904 40.9604C59.5363 39.5385 60.7094 37.3274 61.6709 35.1938C62.1516 34.1272 62.5786 33.0804 62.8857 32.1616C63.1934 31.2414 63.3789 30.4541 63.3789 29.9048C63.3789 29.3429 63.4024 28.8484 63.3916 28.3794C63.3808 27.9129 63.3357 27.4806 63.1982 27.0542C62.924 26.2032 62.2798 25.3643 60.7832 24.3286C59.2929 23.2973 57.0516 22.779 54.8115 22.5483C52.5734 22.3179 50.3443 22.3755 48.8838 22.4907C47.4229 22.606 44.1723 23.0487 41.0439 23.4624C39.4803 23.6692 37.9468 23.8682 36.6846 24.0161C35.424 24.1639 34.43 24.2612 33.9453 24.2612C32.983 24.2612 31.0852 24.2417 29.3926 23.9331C28.5466 23.7788 27.7473 23.552 27.1416 23.2163C26.536 22.8807 26.115 22.4313 26.043 21.8315C25.9037 20.6711 25.9807 19.8335 26.4248 18.9087C26.867 17.9878 27.6725 16.9826 28.9805 15.4829C29.6386 14.7283 30.7298 13.8262 31.9932 12.8989C33.2574 11.971 34.6974 11.016 36.0547 10.1548C37.4119 9.29368 38.687 8.52614 39.623 7.97412C40.0911 7.69809 40.475 7.47598 40.7412 7.32275C40.8743 7.24615 40.9782 7.18621 41.0488 7.146C41.084 7.12597 41.1108 7.11037 41.1289 7.1001C41.138 7.09496 41.1448 7.09098 41.1494 7.08838C41.1517 7.08708 41.1541 7.0861 41.1553 7.08545H41.1562V7.08447L41.2119 7.16748Z" stroke="#CE1126" stroke-width="0.1"/>
</g>
<g filter="url(#filter1_d_193_9)">
<path d="M76.8023 19.3486L100.749 1C89.4739 11.7188 84.8923 17.987 80.1794 29.6793C75.2794 45.4861 75.2672 54.4267 80.1794 63.4468C86.3682 73.1604 96.9885 79.097 116.944 84.7544H107.734C107.734 84.7544 100.172 82.5012 96.3746 81.3328C67.0546 72.3127 63.8309 46.9485 76.8023 19.3486Z" fill="#F2E50F"/>
<path d="M100.784 1.03613C89.514 11.7501 84.9355 18.012 80.2266 29.6934C75.3287 45.4932 75.3206 54.4183 80.2217 63.4199L80.5146 63.8721C86.7339 73.3026 97.3166 79.1379 116.958 84.7061L116.944 84.8047H107.727L107.72 84.8027V84.8018H107.719C107.718 84.8015 107.716 84.8013 107.714 84.8008C107.71 84.7997 107.705 84.7979 107.698 84.7959C107.684 84.7916 107.662 84.7848 107.634 84.7764C107.578 84.7596 107.495 84.735 107.388 84.7031C107.174 84.6392 106.863 84.5464 106.479 84.4316C105.71 84.2022 104.646 83.8839 103.464 83.5293C101.099 82.82 98.2594 81.9651 96.3604 81.3809C81.6867 76.8666 73.5353 68.2584 70.6807 57.3203C67.8272 46.386 70.2687 33.1324 76.7568 19.3271L76.7617 19.3164L76.7715 19.3086L100.719 0.959961L100.784 1.03613Z" stroke="#FCD116" stroke-width="0.1"/>
</g>
<g filter="url(#filter2_d_193_9)">
<path d="M48.0816 73.0103C60.0957 67.4793 71.5088 65.5856 95.781 64.7349L103.462 69.6073C82.1087 67.0551 61.7539 71.4635 36.8672 83.5285L48.0816 73.0103Z" fill="#2B71B7"/>
<path d="M95.8076 64.6929L103.489 69.5649L103.456 69.6567C82.1149 67.106 61.7695 71.5115 36.8887 83.5737L36.833 83.4917L48.0469 72.9741L48.0537 72.9683L48.0605 72.9644C60.084 67.4291 71.5055 65.5359 95.7793 64.6851L95.7949 64.6841L95.8076 64.6929Z" stroke="#003893" stroke-width="0.1"/>
</g>
<g filter="url(#filter3_d_193_9)">
<path d="M117.607 65.3496H111.447C107.507 65.3496 105.527 64.1096 105.527 61.6296V51.7096C105.527 50.9496 105.987 50.7696 106.847 50.7696C107.727 50.7696 108.187 50.9496 108.187 51.7096V61.6296C108.187 62.4896 109.187 63.1896 111.527 63.1896H117.527C119.867 63.1896 120.867 62.4896 120.867 61.6296V51.7096C120.867 50.9496 121.327 50.7696 122.207 50.7696C123.067 50.7696 123.527 50.9496 123.527 51.7096V61.6296C123.527 64.1096 121.547 65.3496 117.607 65.3496ZM140.133 53.0096H134.093V64.4896C134.093 65.2496 133.633 65.4296 132.753 65.4296C131.893 65.4296 131.433 65.2496 131.433 64.4896V53.0096H125.413C124.773 53.0096 124.633 52.6496 124.633 51.9296C124.633 51.2096 124.773 50.8496 125.413 50.8496H140.133C140.773 50.8496 140.913 51.2096 140.913 51.9296C140.913 52.6496 140.773 53.0096 140.133 53.0096ZM153.26 65.3496H147.44C143.5 65.3496 141.52 64.1096 141.52 61.6296V54.5696C141.52 52.0696 143.5 50.8496 147.44 50.8496H153.26C157.2 50.8496 159.18 52.0696 159.18 54.5696V61.6296C159.18 64.1096 157.2 65.3496 153.26 65.3496ZM153.18 63.1896C155.52 63.1896 156.54 62.4896 156.54 61.6296V54.5696C156.54 53.6896 155.52 53.0096 153.18 53.0096H147.52C145.18 53.0096 144.16 53.6896 144.16 54.5696V61.6296C144.16 62.4896 145.18 63.1896 147.52 63.1896H153.18ZM179 61.2096C179 64.6296 176.06 65.3496 173.1 65.3496H161.8C161.18 65.3496 160.88 65.0296 160.88 64.4096V51.7696C160.88 51.1496 161.18 50.8496 161.8 50.8496H172.94C176.42 50.8496 178.82 51.6696 178.82 55.0096C178.82 56.4096 178.4 57.4496 176.98 58.1496C178.2 58.6096 179 59.4296 179 61.2096ZM163.54 53.0096V56.9896H173.12C175.52 56.9896 176.26 56.6696 176.26 54.9896C176.26 53.5896 175.74 53.0096 173.22 53.0096H163.54ZM176.28 61.2896C176.28 59.7496 175.78 59.1696 172.98 59.1696H163.54V63.1896H173.26C175.9 63.1896 176.28 62.6296 176.28 61.2896ZM192.411 65.3496H186.251C182.311 65.3496 180.331 64.1096 180.331 61.6296V51.7096C180.331 50.9496 180.791 50.7696 181.651 50.7696C182.531 50.7696 182.991 50.9496 182.991 51.7096V61.6296C182.991 62.4896 183.991 63.1896 186.331 63.1896H192.331C194.671 63.1896 195.671 62.4896 195.671 61.6296V51.7096C195.671 50.9496 196.131 50.7696 197.011 50.7696C197.871 50.7696 198.331 50.9496 198.331 51.7096V61.6296C198.331 64.1096 196.351 65.3496 192.411 65.3496ZM210.518 59.0696H205.798C201.858 59.0696 199.878 57.8296 199.878 55.3496V54.5696C199.878 52.0696 201.858 50.8496 205.798 50.8496H207.798C208.438 50.8496 208.578 51.2096 208.578 51.9296C208.578 52.6496 208.438 53.0096 207.798 53.0096H205.738C203.398 53.0096 202.518 53.6896 202.518 54.5696V55.3496C202.518 56.2096 203.398 56.9096 205.738 56.9096H210.458C214.398 56.9096 216.378 58.1496 216.378 60.6296V61.6296C216.378 64.1296 214.398 65.3496 210.458 65.3496H200.658C200.018 65.3496 199.878 64.9896 199.878 64.2696C199.878 63.5496 200.018 63.1896 200.658 63.1896H210.518C212.858 63.1896 213.738 62.5096 213.738 61.6296V60.6296C213.738 59.7696 212.858 59.0696 210.518 59.0696ZM233.312 59.2896H220.332V61.6296C220.332 62.4896 221.352 63.1896 223.692 63.1896H233.252C233.892 63.1896 234.032 63.5496 234.032 64.2696C234.032 64.9696 233.892 65.3496 233.252 65.3496H223.612C219.672 65.3496 217.692 64.1096 217.692 61.6296V54.5696C217.692 52.0696 219.672 50.8496 223.612 50.8496H226.592C227.212 50.8496 227.352 51.2096 227.352 51.9296C227.352 52.6496 227.212 53.0096 226.592 53.0096H223.692C221.352 53.0096 220.332 53.6896 220.332 54.5696V57.1296H233.312C233.952 57.1296 234.092 57.4896 234.092 58.2096C234.092 58.9296 233.952 59.2896 233.312 59.2896ZM246.084 59.0696H241.364C237.424 59.0696 235.444 57.8296 235.444 55.3496V54.5696C235.444 52.0696 237.424 50.8496 241.364 50.8496H243.364C244.004 50.8496 244.144 51.2096 244.144 51.9296C244.144 52.6496 244.004 53.0096 243.364 53.0096H241.304C238.964 53.0096 238.084 53.6896 238.084 54.5696V55.3496C238.084 56.2096 238.964 56.9096 241.304 56.9096H246.024C249.964 56.9096 251.944 58.1496 251.944 60.6296V61.6296C251.944 64.1296 249.964 65.3496 246.024 65.3496H236.224C235.584 65.3496 235.444 64.9896 235.444 64.2696C235.444 63.5496 235.584 63.1896 236.224 63.1896H246.084C248.424 63.1896 249.304 62.5096 249.304 61.6296V60.6296C249.304 59.7696 248.424 59.0696 246.084 59.0696ZM116.139 72.8816V77.1176C116.139 78.6056 114.963 79.3496 112.587 79.3496H105.783C105.411 79.3496 105.231 79.1576 105.231 78.7856V71.2016C105.231 70.8296 105.411 70.6496 105.783 70.6496H112.587C114.963 70.6496 116.139 71.3816 116.139 72.8816ZM106.827 71.9456V78.0536H112.539C113.943 78.0536 114.567 77.6336 114.567 77.1176V72.8816C114.567 72.3536 113.943 71.9456 112.539 71.9456H106.827ZM126.424 75.7136H118.636V77.1176C118.636 77.6336 119.248 78.0536 120.652 78.0536H126.388C126.772 78.0536 126.856 78.2696 126.856 78.7016C126.856 79.1216 126.772 79.3496 126.388 79.3496H120.604C118.24 79.3496 117.052 78.6056 117.052 77.1176V72.8816C117.052 71.3816 118.24 70.6496 120.604 70.6496H122.392C122.764 70.6496 122.848 70.8656 122.848 71.2976C122.848 71.7296 122.764 71.9456 122.392 71.9456H120.652C119.248 71.9456 118.636 72.3536 118.636 72.8816V74.4176H126.424C126.808 74.4176 126.892 74.6336 126.892 75.0656C126.892 75.4976 126.808 75.7136 126.424 75.7136ZM141.379 79.3496H135.487C133.123 79.3496 131.935 78.6056 131.935 77.1176V72.8816C131.935 71.3816 133.123 70.6496 135.487 70.6496H141.367C141.751 70.6496 141.835 70.8656 141.835 71.2976C141.835 71.7296 141.751 71.9456 141.367 71.9456H135.535C134.131 71.9456 133.519 72.3536 133.519 72.8816V77.1176C133.519 77.6336 134.131 78.0536 135.535 78.0536H141.379C141.763 78.0536 141.835 78.2696 141.835 78.7016C141.835 79.1216 141.763 79.3496 141.379 79.3496ZM149.737 79.3496H146.245C143.881 79.3496 142.693 78.6056 142.693 77.1176V72.8816C142.693 71.3816 143.881 70.6496 146.245 70.6496H149.737C152.101 70.6496 153.289 71.3816 153.289 72.8816V77.1176C153.289 78.6056 152.101 79.3496 149.737 79.3496ZM149.689 78.0536C151.093 78.0536 151.705 77.6336 151.705 77.1176V72.8816C151.705 72.3536 151.093 71.9456 149.689 71.9456H146.293C144.889 71.9456 144.277 72.3536 144.277 72.8816V77.1176C144.277 77.6336 144.889 78.0536 146.293 78.0536H149.689ZM163.741 79.3496H157.813C155.449 79.3496 154.261 78.6056 154.261 77.1176V71.1656C154.261 70.7096 154.537 70.6016 155.053 70.6016C155.581 70.6016 155.857 70.7096 155.857 71.1656V77.1176C155.857 77.6336 156.457 78.0536 157.861 78.0536H163.741C164.125 78.0536 164.197 78.2696 164.197 78.6896C164.197 79.1216 164.125 79.3496 163.741 79.3496ZM171.604 79.3496H168.112C165.748 79.3496 164.56 78.6056 164.56 77.1176V72.8816C164.56 71.3816 165.748 70.6496 168.112 70.6496H171.604C173.968 70.6496 175.156 71.3816 175.156 72.8816V77.1176C175.156 78.6056 173.968 79.3496 171.604 79.3496ZM171.556 78.0536C172.96 78.0536 173.572 77.6336 173.572 77.1176V72.8816C173.572 72.3536 172.96 71.9456 171.556 71.9456H168.16C166.756 71.9456 166.144 72.3536 166.144 72.8816V77.1176C166.144 77.6336 166.756 78.0536 168.16 78.0536H171.556ZM183.52 77.7536L189.088 71.0936C189.34 70.7936 189.652 70.6736 190.036 70.6736C190.624 70.6736 190.924 70.9496 190.924 71.4896V78.8336C190.924 79.2896 190.648 79.3976 190.12 79.3976C189.592 79.3976 189.316 79.2896 189.316 78.8336V73.1456L184.528 78.9416C184.252 79.2656 184 79.3976 183.58 79.3976C183.124 79.3976 182.824 79.2536 182.572 78.9416L177.772 73.1456V78.8336C177.772 79.2896 177.496 79.3976 176.968 79.3976C176.452 79.3976 176.176 79.2896 176.176 78.8336V71.4896C176.176 70.9496 176.476 70.6736 177.052 70.6736C177.46 70.6736 177.76 70.8176 178 71.0936L183.52 77.7536ZM202.927 76.8656C202.927 78.9176 201.163 79.3496 199.387 79.3496H192.607C192.235 79.3496 192.055 79.1576 192.055 78.7856V71.2016C192.055 70.8296 192.235 70.6496 192.607 70.6496H199.291C201.379 70.6496 202.819 71.1416 202.819 73.1456C202.819 73.9856 202.567 74.6096 201.715 75.0296C202.447 75.3056 202.927 75.7976 202.927 76.8656ZM193.651 71.9456V74.3336H199.399C200.839 74.3336 201.283 74.1416 201.283 73.1336C201.283 72.2936 200.971 71.9456 199.459 71.9456H193.651ZM201.295 76.9136C201.295 75.9896 200.995 75.6416 199.315 75.6416H193.651V78.0536H199.483C201.067 78.0536 201.295 77.7176 201.295 76.9136ZM205.369 71.1656V78.8336C205.369 79.2896 205.093 79.3976 204.565 79.3976C204.049 79.3976 203.773 79.2896 203.773 78.8336V71.1656C203.773 70.7096 204.049 70.6016 204.565 70.6016C205.093 70.6016 205.369 70.7096 205.369 71.1656ZM212.024 70.6136C212.492 70.6136 212.768 70.7696 212.96 71.0336L218.192 78.4976C218.252 78.5936 218.276 78.6896 218.276 78.7736C218.276 79.1336 217.808 79.4096 217.4 79.4096C217.184 79.4096 216.992 79.3376 216.872 79.1696L215.456 77.1056H208.784L207.452 79.1696C207.344 79.3376 207.14 79.4096 206.936 79.4096C206.54 79.4096 206.072 79.1336 206.072 78.7616C206.072 78.6656 206.108 78.5816 206.156 78.4976L211.076 71.0336C211.256 70.7696 211.544 70.6136 212.024 70.6136ZM212.024 72.0776L209.612 75.8096H214.568L212.024 72.0776ZM218.984 78.6536C218.984 78.1376 219.26 77.9096 219.932 77.9096C220.604 77.9096 220.88 78.1376 220.88 78.6536C220.88 79.1696 220.604 79.3976 219.932 79.3976C219.26 79.3976 218.984 79.1696 218.984 78.6536ZM230.863 79.3496H224.971C222.607 79.3496 221.419 78.6056 221.419 77.1176V72.8816C221.419 71.3816 222.607 70.6496 224.971 70.6496H230.851C231.235 70.6496 231.319 70.8656 231.319 71.2976C231.319 71.7296 231.235 71.9456 230.851 71.9456H225.019C223.615 71.9456 223.003 72.3536 223.003 72.8816V77.1176C223.003 77.6336 223.615 78.0536 225.019 78.0536H230.863C231.247 78.0536 231.319 78.2696 231.319 78.7016C231.319 79.1216 231.247 79.3496 230.863 79.3496ZM239.221 79.3496H235.729C233.365 79.3496 232.177 78.6056 232.177 77.1176V72.8816C232.177 71.3816 233.365 70.6496 235.729 70.6496H239.221C241.585 70.6496 242.773 71.3816 242.773 72.8816V77.1176C242.773 78.6056 241.585 79.3496 239.221 79.3496ZM239.173 78.0536C240.577 78.0536 241.189 77.6336 241.189 77.1176V72.8816C241.189 72.3536 240.577 71.9456 239.173 71.9456H235.777C234.373 71.9456 233.761 72.3536 233.761 72.8816V77.1176C233.761 77.6336 234.373 78.0536 235.777 78.0536H239.173ZM251.137 77.7536L256.705 71.0936C256.957 70.7936 257.269 70.6736 257.653 70.6736C258.241 70.6736 258.541 70.9496 258.541 71.4896V78.8336C258.541 79.2896 258.265 79.3976 257.737 79.3976C257.209 79.3976 256.933 79.2896 256.933 78.8336V73.1456L252.145 78.9416C251.869 79.2656 251.617 79.3976 251.197 79.3976C250.741 79.3976 250.441 79.2536 250.189 78.9416L245.389 73.1456V78.8336C245.389 79.2896 245.113 79.3976 244.585 79.3976C244.069 79.3976 243.793 79.2896 243.793 78.8336V71.4896C243.793 70.9496 244.093 70.6736 244.669 70.6736C245.077 70.6736 245.377 70.8176 245.617 71.0936L251.137 77.7536Z" fill="white"/>
</g>
<defs>
<filter id="filter0_d_193_9" x="0.951172" y="7.04126" width="69.4326" height="93.9744" filterUnits="userSpaceOnUse" color-interpolation-filters="sRGB">
<feFlood flood-opacity="0" result="BackgroundImageFix"/>
<feColorMatrix in="SourceAlpha" type="matrix" values="0 0 0 0 0 0 0 0 0 0 0 0 0 0 0 0 0 0 127 0" result="hardAlpha"/>
<feOffset dy="4"/>
<feGaussianBlur stdDeviation="2"/>
<feComposite in2="hardAlpha" operator="out"/>
<feColorMatrix type="matrix" values="0 0 0 0 0 0 0 0 0 0 0 0 0 0 0 0 0 0 0.25 0"/>
<feBlend mode="normal" in2="BackgroundImageFix" result="effect1_dropShadow_193_9"/>
<feBlend mode="normal" in="SourceGraphic" in2="effect1_dropShadow_193_9" result="shape"/>
</filter>
<filter id="filter1_d_193_9" x="65.4517" y="0.920654" width="55.52" height="91.9336" filterUnits="userSpaceOnUse" color-interpolation-filters="sRGB">
<feFlood flood-opacity="0" result="BackgroundImageFix"/>
<feColorMatrix in="SourceAlpha" type="matrix" values="0 0 0 0 0 0 0 0 0 0 0 0 0 0 0 0 0 0 127 0" result="hardAlpha"/>
<feOffset dy="4"/>
<feGaussianBlur stdDeviation="2"/>
<feComposite in2="hardAlpha" operator="out"/>
<feColorMatrix type="matrix" values="0 0 0 0 0 0 0 0 0 0 0 0 0 0 0 0 0 0 0.25 0"/>
<feBlend mode="normal" in2="BackgroundImageFix" result="effect1_dropShadow_193_9"/>
<feBlend mode="normal" in="SourceGraphic" in2="effect1_dropShadow_193_9" result="shape"/>
</filter>
<filter id="filter2_d_193_9" x="32.7988" y="64.6338" width="74.7168" height="26.9846" filterUnits="userSpaceOnUse" color-interpolation-filters="sRGB">
<feFlood flood-opacity="0" result="BackgroundImageFix"/>
<feColorMatrix in="SourceAlpha" type="matrix" values="0 0 0 0 0 0 0 0 0 0 0 0 0 0 0 0 0 0 127 0" result="hardAlpha"/>
<feOffset dy="4"/>
<feGaussianBlur stdDeviation="2"/>
<feComposite in2="hardAlpha" operator="out"/>
<feColorMatrix type="matrix" values="0 0 0 0 0 0 0 0 0 0 0 0 0 0 0 0 0 0 0.25 0"/>
<feBlend mode="normal" in2="BackgroundImageFix" result="effect1_dropShadow_193_9"/>
<feBlend mode="normal" in="SourceGraphic" in2="effect1_dropShadow_193_9" result="shape"/>
</filter>
<filter id="filter3_d_193_9" x="101.23" y="50.7695" width="161.311" height="36.6401" filterUnits="userSpaceOnUse" color-interpolation-filters="sRGB">
<feFlood flood-opacity="0" result="BackgroundImageFix"/>
<feColorMatrix in="SourceAlpha" type="matrix" values="0 0 0 0 0 0 0 0 0 0 0 0 0 0 0 0 0 0 127 0" result="hardAlpha"/>
<feOffset dy="4"/>
<feGaussianBlur stdDeviation="2"/>
<feComposite in2="hardAlpha" operator="out"/>
<feColorMatrix type="matrix" values="0 0 0 0 0 0 0 0 0 0 0 0 0 0 0 0 0 0 0.25 0"/>
<feBlend mode="normal" in2="BackgroundImageFix" result="effect1_dropShadow_193_9"/>
<feBlend mode="normal" in="SourceGraphic" in2="effect1_dropShadow_193_9" result="shape"/>
</filter>
</defs>
</svg>
